<svg xmlns="http://www.w3.org/2000/svg" width="27.485" height="29.338" viewBox="0 0 27.485 29.338">
  <g id="Group_5" data-name="Group 5" transform="translate(-130.257 -409.052)">
    <g id="noun_marriage_671580" transform="translate(130 408)">
      <g id="Group" transform="translate(0 30.647)">
        <g id="Group-2" data-name="Group">
          <g id="Group-3" data-name="Group">
            <path id="Shape" d="M-7.763,29.338a3.15,3.15,0,0,0,3.146-3.147,3.15,3.15,0,0,0-3.146-3.147,3.151,3.151,0,0,0-3.148,3.147A3.151,3.151,0,0,0-7.763,29.338Zm0-4.75a1.6,1.6,0,0,1,1.6,1.6,1.6,1.6,0,0,1-1.6,1.6,1.605,1.605,0,0,1-1.6-1.6A1.605,1.605,0,0,1-7.763,24.588Zm-13.075,3.653a3.151,3.151,0,0,0,3.148-3.147,3.151,3.151,0,0,0-3.148-3.147,3.151,3.151,0,0,0-3.147,3.147A3.151,3.151,0,0,0-20.839,28.241Zm0-4.75a1.605,1.605,0,0,1,1.6,1.6,1.606,1.606,0,0,1-1.6,1.6,1.605,1.605,0,0,1-1.6-1.6A1.6,1.6,0,0,1-20.839,23.491Zm9.923-1.954a.777.777,0,0,0,.777-.773v-7.84h4.425l-.008,7.839a.759.759,0,0,0,.221.542.791.791,0,0,0,.556.231.756.756,0,0,0,.488-.179A17.147,17.147,0,0,0-.083,15.746a.767.767,0,0,0,.044-.589.766.766,0,0,0-.386-.448.764.764,0,0,0-.347-.083.768.768,0,0,0-.69.425A16.536,16.536,0,0,1-3.828,18.6l-.348.374L-4.168.833A.773.773,0,0,0-4.94.061h-5.971a.773.773,0,0,0-.772.772v18.2l-.488-.521a13.93,13.93,0,0,1-2.215-3.437.774.774,0,0,0-.7-.451.765.765,0,0,0-.321.07.765.765,0,0,0-.312.26.776.776,0,0,0-.157.242,9.716,9.716,0,0,1-1.936,3.008l-.392.392-.209-.214c-.468-.5-.92-1-1.342-1.5l-.083-.1.755-1a27.132,27.132,0,0,0,4.234-9.406.766.766,0,0,0-.144-.657.768.768,0,0,0-.607-.295h-3.014a.783.783,0,0,0,.013-.139V.772A.773.773,0,0,0-19.375,0a.773.773,0,0,0-.772.772v4.5a.785.785,0,0,0,.013.139h-1.113a.783.783,0,0,0,.013-.139V.772A.773.773,0,0,0-22.008,0a.773.773,0,0,0-.772.772v4.5a.785.785,0,0,0,.013.139h-3.287a.769.769,0,0,0-.6.29.767.767,0,0,0-.15.651,26.563,26.563,0,0,0,4.588,9.886l.406.536-.859,1-.779.813-.418-.375a10.176,10.176,0,0,1-2.139-3.047.775.775,0,0,0-.7-.453.763.763,0,0,0-.318.069.766.766,0,0,0-.4.431.765.765,0,0,0,.02.59A12.157,12.157,0,0,0-23.9,20.266a.776.776,0,0,0,.489.174.768.768,0,0,0,.543-.223c.463-.458.915-.93,1.343-1.4l.7-.815.572.662c.474.531.968,1.053,1.468,1.552a.764.764,0,0,0,.545.226.772.772,0,0,0,.5-.18,11.566,11.566,0,0,0,2.665-3.168,14.951,14.951,0,0,0,3.694,4.279A.758.758,0,0,0-10.915,21.537ZM-16.6,6.959l-.016.062a25.527,25.527,0,0,1-3.736,7.87l-.475.632-.146-.191a25.524,25.524,0,0,1-3.846-7.516l-.248-.857ZM-5.713,1.606l-.007,9.776h-4.418V1.606h1.354V9.145a.773.773,0,0,0,.772.772.773.773,0,0,0,.772-.772V1.606Z" transform="translate(0.257 -0.257) rotate(180)" fill="#5f5d70"/>
          </g>
        </g>
      </g>
    </g>
  </g>
</svg>
