<svg xmlns="http://www.w3.org/2000/svg" width="11.528" height="30.677" viewBox="0 0 11.528 30.677">
  <g id="Group_6" data-name="Group 6" transform="translate(-51.263 -408.054)">
    <g id="noun_Man_crossed_arms_671590" data-name="noun_Man crossed arms_671590" transform="translate(51 408)">
      <g id="Group" transform="translate(0 31)">
        <g id="Group-2" data-name="Group">
          <g id="Group-3" data-name="Group">
            <path id="Shape" d="M-5.764,30.677a3.3,3.3,0,0,0,3.3-3.3,3.3,3.3,0,0,0-3.3-3.3,3.3,3.3,0,0,0-3.3,3.3A3.3,3.3,0,0,0-5.764,30.677Zm0-4.979a1.684,1.684,0,0,1,1.682,1.682,1.684,1.684,0,0,1-1.682,1.682,1.684,1.684,0,0,1-1.682-1.682A1.684,1.684,0,0,1-5.764,25.7Zm-4.957-3.013a.808.808,0,0,0,.807-.807V17.824l.134.014a7.81,7.81,0,0,1,3.3,1.407,10.5,10.5,0,0,0,1.119.66,3.47,3.47,0,0,0,1.519.4,2.821,2.821,0,0,0,1.52-.467.8.8,0,0,0,.359-.5.8.8,0,0,0-.1-.609.8.8,0,0,0-.687-.38.8.8,0,0,0-.426.122,1.255,1.255,0,0,1-.671.223h-.034a2.005,2.005,0,0,1-.783-.238,9.034,9.034,0,0,1-.923-.55,11.361,11.361,0,0,0-2.5-1.306V13.8h4.632v2.675A9.691,9.691,0,0,0-5.589,17.49l.274.177a6.771,6.771,0,0,0,1,.579,1.252,1.252,0,0,0,.469.118h.017a6.576,6.576,0,0,1,1.937-.6l.282-.032v4.143a.808.808,0,0,0,.807.807A.808.808,0,0,0,0,21.878V16.889a.809.809,0,0,0-.8-.807h-.05a8.971,8.971,0,0,0-.977.051V.807a.8.8,0,0,0-.235-.57A.8.8,0,0,0-2.636,0H-8.892A.808.808,0,0,0-9.7.807V16.221a8.324,8.324,0,0,0-.983-.058h-.043a.809.809,0,0,0-.8.807v4.908A.808.808,0,0,0-10.721,22.685ZM-3.443,1.615l-.008,10.571H-8.085V1.615h1.514v7.9a.808.808,0,0,0,.807.807.808.808,0,0,0,.807-.807v-7.9Zm-4.32,18.621a2.66,2.66,0,0,0,.744-.11,4.279,4.279,0,0,0,.807-.347c-.121-.076-.239-.153-.365-.235-.327-.212-.666-.432-1.032-.633A6.537,6.537,0,0,0-9,18.325a.807.807,0,0,0-.46.344.808.808,0,0,0,.249,1.114A2.7,2.7,0,0,0-7.764,20.235Z" transform="translate(0.263 -0.269) rotate(180)" fill="#5f5d71"/>
          </g>
        </g>
      </g>
    </g>
  </g>
</svg>
