<svg xmlns="http://www.w3.org/2000/svg" width="16.08" height="29.687" viewBox="0 0 16.08 29.687">
  <g id="male" transform="translate(-0.293 -0.053)">
    <g id="Group" transform="translate(0 30)">
      <g id="Group-2" data-name="Group">
        <g id="Group-3" data-name="Group">
          <path id="Shape" d="M-8.041,29.687A3.194,3.194,0,0,0-4.85,26.5a3.194,3.194,0,0,0-3.19-3.191A3.194,3.194,0,0,0-11.231,26.5,3.194,3.194,0,0,0-8.041,29.687Zm0-4.818A1.63,1.63,0,0,1-6.413,26.5a1.629,1.629,0,0,1-1.628,1.627A1.629,1.629,0,0,1-9.669,26.5,1.63,1.63,0,0,1-8.041,24.87Zm-3.031-3.094a.778.778,0,0,0,.79-.781V13.356h4.491L-5.8,20.993a.756.756,0,0,0,.221.547.809.809,0,0,0,.569.235.757.757,0,0,0,.607-.3l4.236-5.441a.782.782,0,0,0-.137-1.1.773.773,0,0,0-.479-.164.776.776,0,0,0-.617.3l-2.836,3.642,0-17.933A.783.783,0,0,0-5.013,0h-6.055a.782.782,0,0,0-.781.781l.005,17.938-2.84-3.646a.776.776,0,0,0-.617-.3.774.774,0,0,0-.479.164.777.777,0,0,0-.3.522.773.773,0,0,0,.159.575l4.236,5.441A.757.757,0,0,0-11.072,21.775ZM-5.8,1.562-5.8,11.794h-4.485V1.562h1.465V9.211a.782.782,0,0,0,.781.781.782.782,0,0,0,.781-.781V1.562Z" transform="translate(0.292 -0.26) rotate(180)" fill="#5f5d71"/>
        </g>
      </g>
    </g>
  </g>
</svg>
