<svg xmlns="http://www.w3.org/2000/svg" width="21.713" height="21.713" viewBox="0 0 21.713 21.713">
  <g id="Solid" transform="translate(-24 -24)">
    <path id="Path_9034" data-name="Path 9034" d="M146.055,40.892a1.123,1.123,0,0,0,1.588,0l4.235-4.235a1.123,1.123,0,1,0-1.588-1.588l-2.318,2.318V25.123a1.123,1.123,0,1,0-2.246,0V37.386l-2.318-2.318a1.123,1.123,0,1,0-1.588,1.588Z" transform="translate(-111.993)" fill="#1bb55e"/>
    <path id="Path_9035" data-name="Path 9035" d="M44.59,232a1.123,1.123,0,0,0-1.123,1.123v8.61H26.246v-8.61a1.123,1.123,0,1,0-2.246,0v8.985a1.872,1.872,0,0,0,1.872,1.872h17.97a1.872,1.872,0,0,0,1.872-1.872v-8.985A1.123,1.123,0,0,0,44.59,232Z" transform="translate(0 -198.266)" fill="#1bb55e"/>
  </g>
</svg>
