<svg xmlns="http://www.w3.org/2000/svg" width="18.046" height="23.46" viewBox="0 0 18.046 23.46">
  <g id="Group_6193" data-name="Group 6193" transform="translate(-5 -2)">
    <path id="Path_9036" data-name="Path 9036" d="M14.023,2A9.049,9.049,0,0,0,5,11.023v6.316a.852.852,0,0,0,.9.9h1.8a.852.852,0,0,0,.9-.9v-3.97a.867.867,0,0,0-.541-.812L6.8,11.925v-.9a7.218,7.218,0,1,1,14.437,0v.9l-1.263.632a1.037,1.037,0,0,0-.541.812v3.97a.852.852,0,0,0,.9.9h1.8a.852.852,0,0,0,.9-.9V11.023A9.049,9.049,0,0,0,14.023,2Z" fill="#1bb55e"/>
    <path id="Path_9037" data-name="Path 9037" d="M18.414,24.707H16.338a1.747,1.747,0,0,0-1.534-.9,1.8,1.8,0,1,0,0,3.609,1.747,1.747,0,0,0,1.534-.9h2.075A4.468,4.468,0,0,0,22.925,22h-1.8A2.659,2.659,0,0,1,18.414,24.707Z" transform="translate(-0.782 -1.954)" fill="#1bb55e"/>
  </g>
</svg>
