<svg xmlns="http://www.w3.org/2000/svg" width="13.926" height="12.813" viewBox="0 0 13.926 12.813">
  <g id="comment" transform="translate(0 1.332)">
    <path id="Path_13092" data-name="Path 13092" d="M12.012-1.332H1.915A1.917,1.917,0,0,0,0,.583V6.762A1.917,1.917,0,0,0,1.908,8.676v2.8l4.03-2.8h6.074a1.917,1.917,0,0,0,1.915-1.915V.583A1.917,1.917,0,0,0,12.012-1.332Zm1.1,8.094a1.1,1.1,0,0,1-1.1,1.1H5.682L2.724,9.919V7.86H1.915a1.1,1.1,0,0,1-1.1-1.1V.583a1.1,1.1,0,0,1,1.1-1.1h10.1a1.1,1.1,0,0,1,1.1,1.1Zm0,0" fill="#404b61"/>
    <path id="Path_13093" data-name="Path 13093" d="M171.293,131.172h6.472v.816h-6.472Zm0,0" transform="translate(-167.566 -129.621)" fill="#404b61"/>
    <path id="Path_13094" data-name="Path 13094" d="M171.293,211.172h6.472v.816h-6.472Zm0,0" transform="translate(-167.566 -207.88)" fill="#404b61"/>
    <path id="Path_13095" data-name="Path 13095" d="M171.293,291.172h6.472v.816h-6.472Zm0,0" transform="translate(-167.566 -286.139)" fill="#404b61"/>
  </g>
</svg>
