<svg xmlns="http://www.w3.org/2000/svg" width="464" height="464" viewBox="0 0 464 464">
  <g id="Solid" transform="translate(-24 -24)">
    <path id="Path_9063" data-name="Path 9063" d="M239.029,384.97a24,24,0,0,0,33.942,0l90.509-90.509a24,24,0,0,0-33.941-33.941L280,310.059V48a24,24,0,1,0-48,0V310.059L182.461,260.52a24,24,0,1,0-33.941,33.941Z" fill="#017a37"/>
    <path id="Path_9064" data-name="Path 9064" d="M464,232a24,24,0,0,0-24,24V440H72V256a24,24,0,1,0-48,0V448a40,40,0,0,0,40,40H448a40,40,0,0,0,40-40V256A24,24,0,0,0,464,232Z" fill="#017a37"/>
  </g>
</svg>
