<svg xmlns="http://www.w3.org/2000/svg" width="12.039" height="12.051" viewBox="0 0 12.039 12.051">
  <g id="Group_6230" data-name="Group 6230" transform="translate(-2.45 -2.45)">
    <path id="Path_19" data-name="Path 19" d="M12.086,21.33a.846.846,0,0,1-.855.843H4.462a.846.846,0,0,1-.855-.843V14.537a.854.854,0,0,1,.855-.843H7.922L9.016,12.6H4.462A1.952,1.952,0,0,0,2.5,14.537V21.33a1.954,1.954,0,0,0,1.962,1.95h6.78a1.954,1.954,0,0,0,1.962-1.95V16.764l-1.094,1.094V21.33Z" transform="translate(0 -8.829)" fill="#0d927a" stroke="#fff" stroke-width="0.1"/>
    <path id="Path_20" data-name="Path 20" d="M34.472,4.286,32.938,2.764a.889.889,0,0,0-.616-.264h0a.855.855,0,0,0-.616.252L26.044,8.412a.87.87,0,0,0-.252.566l-.1,1.623a.9.9,0,0,0,.252.679.876.876,0,0,0,.616.252h.05l1.635-.1a.87.87,0,0,0,.566-.252L34.46,5.532a.876.876,0,0,0,.252-.616A.824.824,0,0,0,34.472,4.286Zm-3.61.868,1.22,1.22-2.83,2.818-1.22-1.22Zm-2.768,5.2-1.3.075.075-1.3.365-.365,1.22,1.22ZM32.85,5.582,31.642,4.374l.679-.679,1.22,1.22Z" transform="translate(-20.273)" fill="#0d927a" stroke="#fff" stroke-width="0.1"/>
  </g>
</svg>
