<svg xmlns="http://www.w3.org/2000/svg" width="23.103" height="24.14" viewBox="0 0 23.103 24.14">
  <g id="instructions" transform="translate(-11)">
    <path id="Path_9040" data-name="Path 9040" d="M103.049,135.865h1.837a.909.909,0,0,0,.91-.907v-1.832a.909.909,0,0,0-.91-.907h-1.837a.909.909,0,0,0-.908.907v1.832A.909.909,0,0,0,103.049,135.865Zm.035-2.7h1.768v1.761h-1.768Z" transform="translate(-86.844 -125.985)" fill="#14b679"/>
    <path id="Path_9041" data-name="Path 9041" d="M32.581,13.177a1.579,1.579,0,0,0-.659.144,1.454,1.454,0,0,0-.97-.963V2.225A2.229,2.229,0,0,0,28.722,0H13.229A2.229,2.229,0,0,0,11,2.225V3.48a1.071,1.071,0,0,0,1.07,1.069h.459V22.256a1.071,1.071,0,0,0,1.07,1.069H26.078a4.843,4.843,0,0,0,2.646.815,4.659,4.659,0,0,0,1.532-.262,5.456,5.456,0,0,0,2.756-2.237A7.311,7.311,0,0,0,34.1,17.634V14.757a1.5,1.5,0,0,0-1.522-1.58ZM13.473,22.256V4.548h4.32a.471.471,0,1,0,0-.943H12.07a.128.128,0,0,1-.127-.126V2.225A1.285,1.285,0,0,1,13.229.943H26.9a2.209,2.209,0,0,0-.408,1.282V3.48a.128.128,0,0,1-.127.126H22.036a.471.471,0,1,0,0,.943h4.329a1.071,1.071,0,0,0,1.07-1.069V2.225a1.286,1.286,0,0,1,2.572,0V12.357a1.545,1.545,0,0,0-.187.071,1.485,1.485,0,0,0-1.442-1.036,1.582,1.582,0,0,0-.579.109V8.848a1.523,1.523,0,1,0-3.043,0V15.66c0,.215,0,.41.007.583,0,.019,0,.037,0,.056l-1.1-1.175a1.571,1.571,0,0,0-2.245-.17,1.911,1.911,0,0,0-.232,2.666l3.273,4.2q.233.3.484.562H13.6A.128.128,0,0,1,13.473,22.256Zm19.687-4.62c.015,2.568-1.246,4.668-3.213,5.35a4.209,4.209,0,0,1-4.737-1.746l-3.272-4.2a.98.98,0,0,1,.1-1.37.67.67,0,0,1,.423-.17.713.713,0,0,1,.52.267L24.128,17c.324.347.727.779,1.174.6a.747.747,0,0,0,.4-.679c.015-.182.01-.408,0-.694,0-.168-.007-.359-.007-.564V8.848a.581.581,0,1,1,1.157,0V15.6a.471.471,0,0,0,.943,0V12.973a.566.566,0,0,1,.579-.637.586.586,0,0,1,.4.15.639.639,0,0,1,.179.488V15.6a.471.471,0,0,0,.943,0V13.866a.566.566,0,0,1,.578-.638.587.587,0,0,1,.4.15.64.64,0,0,1,.179.488V15.6a.471.471,0,0,0,.943,0v-.841a.566.566,0,0,1,.579-.637.587.587,0,0,1,.4.15.639.639,0,0,1,.179.487v2.88Z" fill="#14b679"/>
    <path id="Path_9042" data-name="Path 9042" d="M201.721,132.69a.471.471,0,0,0,.471.471h3.773a.471.471,0,1,0,0-.943h-3.773A.471.471,0,0,0,201.721,132.69Z" transform="translate(-181.729 -125.985)" fill="#14b679"/>
    <path id="Path_9043" data-name="Path 9043" d="M205.165,189.557h-2.972a.471.471,0,1,0,0,.943h2.972a.471.471,0,1,0,0-.943Z" transform="translate(-181.729 -180.62)" fill="#14b679"/>
    <path id="Path_9044" data-name="Path 9044" d="M102.612,247.865h7.2a.471.471,0,1,0,0-.943h-7.2a.471.471,0,1,0,0,.943Z" transform="translate(-86.844 -235.28)" fill="#14b679"/>
    <path id="Path_9045" data-name="Path 9045" d="M102.612,305.2H106.5a.471.471,0,1,0,0-.943h-3.885a.471.471,0,1,0,0,.943Z" transform="translate(-86.844 -289.914)" fill="#14b679"/>
    <path id="Path_9046" data-name="Path 9046" d="M102.612,362.569h3.421a.471.471,0,1,0,0-.943h-3.421a.471.471,0,1,0,0,.943Z" transform="translate(-86.844 -344.576)" fill="#14b679"/>
    <path id="Path_9047" data-name="Path 9047" d="M107.632,418.964h-5.019a.471.471,0,1,0,0,.943h5.019a.471.471,0,1,0,0-.943Z" transform="translate(-86.844 -399.21)" fill="#14b679"/>
    <path id="Path_9048" data-name="Path 9048" d="M190.544,77.412h0a.471.471,0,1,0-.474-.471A.47.47,0,0,0,190.547,77.412Z" transform="translate(-170.63 -72.864)" fill="#14b679"/>
  </g>
</svg>
