<svg xmlns="http://www.w3.org/2000/svg" width="10.71" height="13.983" viewBox="0 0 10.71 13.983">
  <g id="Group_9105" data-name="Group 9105" transform="translate(-13.75 -2.35)">
    <path id="Path_13100" data-name="Path 13100" d="M58.026,15.213a1.413,1.413,0,1,0-1.413,1.413A1.415,1.415,0,0,0,58.026,15.213Zm-2.105,0a.706.706,0,1,1,.706.706A.7.7,0,0,1,55.921,15.213Z" transform="translate(-35.345 -9.671)" fill="#404b61" stroke="#404b61" stroke-width="0.3"/>
    <path id="Path_13101" data-name="Path 13101" d="M46.942,11.137h0a.969.969,0,0,0,.851-.49c.995-1.73,2.192-4.023,2.192-5.1a3.042,3.042,0,0,0-6.084,0c0,1.081,1.2,3.374,2.192,5.1A1,1,0,0,0,46.942,11.137Zm0-7.93a2.344,2.344,0,0,1,2.336,2.336c0,.706-.764,2.437-2.105,4.758a.242.242,0,0,1-.231.13.274.274,0,0,1-.231-.13c-1.341-2.307-2.105-4.052-2.105-4.758A2.344,2.344,0,0,1,46.942,3.206Z" transform="translate(-25.675)" fill="#404b61" stroke="#404b61" stroke-width="0.3"/>
    <path id="Path_13102" data-name="Path 13102" d="M21.96,50.287H15.89a1.283,1.283,0,0,1,0-2.566h1.9a.36.36,0,1,0,0-.721h-1.9a1.99,1.99,0,0,0,0,3.979h6.07a1.283,1.283,0,0,1,0,2.566H16.985a.36.36,0,1,0,0,.721H21.96a1.99,1.99,0,0,0,0-3.979Z" transform="translate(0 -38.084)" fill="#404b61" stroke="#404b61" stroke-width="0.3"/>
  </g>
</svg>
